<svg width="59.37mm" height="66.806mm" version="1.1" viewBox="0 0 59.37 66.806" xmlns="http://www.w3.org/2000/svg" >
 <g transform="translate(-76.904 -107.2)" fill="none" stroke="#000" stroke-width=".26458px">
  <path d="m84.247 134.48h14.504l5.0131 9.8559-14.48 0.0243z"/>
  <path d="m89.284 144.36 5.0374 9.8072 21.683 0.0243 5.1348-9.7585-14.455-0.073-1.4115 2.7986-1.5088-2.8229z"/>
  <path d="m106.68 144.36 5.1348-9.7829 14.358 0.0243-5.0374 9.8315z"/>
  <path d="m111.82 134.58 14.358 0.0243 4.8914-9.7099-14.455 0.0487z"/>
  <path d="m116.61 124.94 14.455-0.0487 4.9888-9.6368-14.528-0.0487z"/>
  <path d="m94.322 154.17 21.683 0.0243-5.1104 9.6855h-10.805z"/>
  <path d="m100.09 163.88h10.805l-4.9644 9.8559z"/>
  <path d="m82.885 118.82-1.2449 7.9834 6.0666-4.9797 6.6001 4.2288-3.4581-6.9558 5.1773-4.0114h-7.272l-4.051-7.4696-1.1659 7.4103h-6.2049z"/>
 </g>
</svg>
